<?xml version="1.0" encoding="utf-8"?>
<!-- Generator: Adobe Illustrator 16.0.0, SVG Export Plug-In . SVG Version: 6.00 Build 0)  -->
<!DOCTYPE svg PUBLIC "-//W3C//DTD SVG 1.1//EN" "http://www.w3.org/Graphics/SVG/1.1/DTD/svg11.dtd">
<svg version="1.1" id="Layer_3" xmlns="http://www.w3.org/2000/svg" xmlns:xlink="http://www.w3.org/1999/xlink" x="0px" y="0px"
	 width="123px" height="135.273px" viewBox="0 0 123 135.273" enable-background="new 0 0 123 135.273" xml:space="preserve">
<path fill="#006069" d="M122.015,65.272v-0.002h-10.908H23.619l61.463-41.458L66.369,55.571l0.001,0
	c-0.077,0.14-0.12,0.301-0.12,0.472c0,0.544,0.441,0.985,0.985,0.985v0.002h7.438l0.003-0.005h17.647
	c0.104,0.002,0.206,0.005,0.31,0.005c9.479,0,17.163-7.684,17.163-17.163c0-8.738-6.53-15.952-14.978-17.026l12.554-21.304
	c0.107-0.158,0.17-0.348,0.17-0.553c0-0.544-0.441-0.985-0.985-0.985c-0.209,0-0.402,0.065-0.562,0.176v0L94.403,7.995l-0.007,0.011
	L72.598,22.709H22.726v0c-0.528,0-0.958,0.417-0.98,0.94v0.042v6.914v26.404L0.491,71.346C0.198,71.517,0,71.834,0,72.197
	c0,0.544,0.441,0.985,0.985,0.985c0.003,0,0.006-0.001,0.009-0.001h10.895l0.023-0.016H99.4l-56.799,38.312L59.39,82.977
	c0.108-0.187,0.191-0.364,0.191-0.582c0-0.533-0.424-0.967-0.954-0.983l0,0H22.729v0.002c-0.542,0-0.982,0.44-0.982,0.982h0v32.351
	h0.002c0,0.536,0.429,0.971,0.961,0.981h8.224l-10.609,18.011h0.002c-0.105,0.157-0.167,0.347-0.167,0.55
	c0,0.544,0.441,0.985,0.985,0.985c0.213,0,0.409-0.068,0.57-0.183l28.691-19.354c6.676,0.002,42.049,0,42.227,0
	c9.479,0,17.163-7.684,17.163-17.163c0-7.113-4.327-13.215-10.492-15.818l23.161-15.622C122.782,66.97,123,66.64,123,66.257
	C123,65.713,122.56,65.272,122.015,65.272z M92.533,30.607c0.033,0,0.066-0.002,0.1-0.002c5.115,0,9.262,4.147,9.262,9.263
	c0,5.115-4.146,9.262-9.262,9.262c-0.033,0-0.066-0.002-0.1-0.002l-13.204,0.002l10.914-18.522H92.533z M29.642,30.605h31.25
	l-31.25,21.079V30.605z M29.642,107.832V89.307h16.854l-10.912,18.525H29.642z M101.895,98.574c0,5.115-4.146,9.263-9.262,9.263
	v-0.005H62.127l27.457-18.521h3.049C97.748,89.312,101.895,93.459,101.895,98.574z"/>
</svg>
